<svg id="visual" viewBox="0 0 960 540" width="960" height="540" xmlns="http://www.w3.org/2000/svg" xmlns:xlink="http://www.w3.org/1999/xlink" version="1.1"><path d="M0 323L12.3 323.8C24.7 324.7 49.3 326.3 74 330.7C98.7 335 123.3 342 148 339.3C172.7 336.7 197.3 324.3 221.8 319.3C246.3 314.3 270.7 316.7 295.2 315.8C319.7 315 344.3 311 369 307.8C393.7 304.7 418.3 302.3 443 304.7C467.7 307 492.3 314 517 317C541.7 320 566.3 319 591 322.2C615.7 325.3 640.3 332.7 664.8 330.5C689.3 328.3 713.7 316.7 738.2 315.5C762.7 314.3 787.3 323.7 812 322.2C836.7 320.7 861.3 308.3 886 309.8C910.7 311.3 935.3 326.7 947.7 334.3L960 342L960 541L947.7 541C935.3 541 910.7 541 886 541C861.3 541 836.7 541 812 541C787.3 541 762.7 541 738.2 541C713.7 541 689.3 541 664.8 541C640.3 541 615.7 541 591 541C566.3 541 541.7 541 517 541C492.3 541 467.7 541 443 541C418.3 541 393.7 541 369 541C344.3 541 319.7 541 295.2 541C270.7 541 246.3 541 221.8 541C197.3 541 172.7 541 148 541C123.3 541 98.7 541 74 541C49.3 541 24.7 541 12.3 541L0 541Z" fill="#fa7268"></path><path d="M0 370L12.3 368.2C24.7 366.3 49.3 362.7 74 360.3C98.7 358 123.3 357 148 355C172.7 353 197.3 350 221.8 353.2C246.3 356.3 270.7 365.7 295.2 369.7C319.7 373.7 344.3 372.3 369 375C393.7 377.7 418.3 384.3 443 382.7C467.7 381 492.3 371 517 366.3C541.7 361.7 566.3 362.3 591 363.3C615.7 364.3 640.3 365.7 664.8 363.5C689.3 361.3 713.7 355.7 738.2 356.8C762.7 358 787.3 366 812 371.5C836.7 377 861.3 380 886 375.5C910.7 371 935.3 359 947.7 353L960 347L960 541L947.7 541C935.3 541 910.7 541 886 541C861.3 541 836.7 541 812 541C787.3 541 762.7 541 738.2 541C713.7 541 689.3 541 664.8 541C640.3 541 615.7 541 591 541C566.3 541 541.7 541 517 541C492.3 541 467.7 541 443 541C418.3 541 393.7 541 369 541C344.3 541 319.7 541 295.2 541C270.7 541 246.3 541 221.8 541C197.3 541 172.7 541 148 541C123.3 541 98.7 541 74 541C49.3 541 24.7 541 12.3 541L0 541Z" fill="#ef5f67"></path><path d="M0 401L12.3 402.3C24.7 403.7 49.3 406.3 74 407.2C98.7 408 123.3 407 148 409.2C172.7 411.3 197.3 416.7 221.8 421C246.3 425.3 270.7 428.7 295.2 424.2C319.7 419.7 344.3 407.3 369 401.8C393.7 396.3 418.3 397.7 443 397.5C467.7 397.3 492.3 395.7 517 394C541.7 392.3 566.3 390.7 591 395.3C615.7 400 640.3 411 664.8 411.7C689.3 412.3 713.7 402.7 738.2 398.3C762.7 394 787.3 395 812 394.8C836.7 394.7 861.3 393.3 886 398.3C910.7 403.3 935.3 414.7 947.7 420.3L960 426L960 541L947.7 541C935.3 541 910.7 541 886 541C861.3 541 836.7 541 812 541C787.3 541 762.7 541 738.2 541C713.7 541 689.3 541 664.8 541C640.3 541 615.7 541 591 541C566.3 541 541.7 541 517 541C492.3 541 467.7 541 443 541C418.3 541 393.7 541 369 541C344.3 541 319.7 541 295.2 541C270.7 541 246.3 541 221.8 541C197.3 541 172.7 541 148 541C123.3 541 98.7 541 74 541C49.3 541 24.7 541 12.3 541L0 541Z" fill="#e34c67"></path><path d="M0 464L12.3 459.8C24.7 455.7 49.3 447.3 74 442C98.7 436.7 123.3 434.3 148 433.3C172.7 432.3 197.3 432.7 221.8 435.8C246.3 439 270.7 445 295.2 450.2C319.7 455.3 344.3 459.7 369 462.7C393.7 465.7 418.3 467.3 443 462.2C467.7 457 492.3 445 517 440.3C541.7 435.7 566.3 438.3 591 438.2C615.7 438 640.3 435 664.8 438.3C689.3 441.7 713.7 451.3 738.2 450.8C762.7 450.3 787.3 439.7 812 438.3C836.7 437 861.3 445 886 451.2C910.7 457.3 935.3 461.7 947.7 463.8L960 466L960 541L947.7 541C935.3 541 910.7 541 886 541C861.3 541 836.7 541 812 541C787.3 541 762.7 541 738.2 541C713.7 541 689.3 541 664.8 541C640.3 541 615.7 541 591 541C566.3 541 541.7 541 517 541C492.3 541 467.7 541 443 541C418.3 541 393.7 541 369 541C344.3 541 319.7 541 295.2 541C270.7 541 246.3 541 221.8 541C197.3 541 172.7 541 148 541C123.3 541 98.7 541 74 541C49.3 541 24.7 541 12.3 541L0 541Z" fill="#d53867"></path><path d="M0 506L12.3 506.3C24.7 506.7 49.3 507.3 74 501.8C98.7 496.3 123.3 484.7 148 482.2C172.7 479.7 197.3 486.3 221.8 491.2C246.3 496 270.7 499 295.2 500.7C319.7 502.3 344.3 502.7 369 505C393.7 507.3 418.3 511.7 443 511.5C467.7 511.3 492.3 506.7 517 501.8C541.7 497 566.3 492 591 491.7C615.7 491.3 640.3 495.7 664.8 498.7C689.3 501.7 713.7 503.3 738.2 502C762.7 500.7 787.3 496.3 812 492.5C836.7 488.7 861.3 485.3 886 484.3C910.7 483.3 935.3 484.7 947.7 485.3L960 486L960 541L947.7 541C935.3 541 910.7 541 886 541C861.3 541 836.7 541 812 541C787.3 541 762.7 541 738.2 541C713.7 541 689.3 541 664.8 541C640.3 541 615.7 541 591 541C566.3 541 541.7 541 517 541C492.3 541 467.7 541 443 541C418.3 541 393.7 541 369 541C344.3 541 319.7 541 295.2 541C270.7 541 246.3 541 221.8 541C197.3 541 172.7 541 148 541C123.3 541 98.7 541 74 541C49.3 541 24.7 541 12.3 541L0 541Z" fill="#c62368"></path></svg>