<?xml version="1.0" encoding="UTF-8" standalone="no"?>
<!DOCTYPE svg PUBLIC "-//W3C//DTD SVG 1.1//EN" "http://www.w3.org/Graphics/SVG/1.1/DTD/svg11.dtd">
<svg width="100%" height="100%" viewBox="0 0 97 100" version="1.1" xmlns="http://www.w3.org/2000/svg" xmlns:xlink="http://www.w3.org/1999/xlink" xml:space="preserve" xmlns:serif="http://www.serif.com/" style="fill-rule:evenodd;clip-rule:evenodd;stroke-linejoin:round;stroke-miterlimit:2;">
    <g transform="matrix(1,0,0,1,-154.115,-107.425)">
        <g transform="matrix(144,0,0,144,143.459,206.497)">
            <path d="M0.727,-0.477C0.727,-0.435 0.716,-0.397 0.693,-0.363C0.67,-0.329 0.637,-0.304 0.594,-0.288L0.747,-0L0.499,-0L0.377,-0.251L0.295,-0.251L0.295,-0L0.074,-0L0.074,-0.688L0.495,-0.688C0.544,-0.688 0.587,-0.679 0.622,-0.66C0.657,-0.641 0.683,-0.615 0.701,-0.583C0.718,-0.55 0.727,-0.515 0.727,-0.477ZM0.502,-0.468C0.502,-0.486 0.496,-0.501 0.484,-0.513C0.472,-0.525 0.457,-0.531 0.44,-0.531L0.295,-0.531L0.295,-0.404L0.44,-0.404C0.457,-0.404 0.472,-0.41 0.484,-0.423C0.496,-0.435 0.502,-0.45 0.502,-0.468Z" style="fill-rule:nonzero;"/>
        </g>
    </g>
</svg>
