<svg id="visual" viewBox="0 0 960 540" width="960" height="540" xmlns="http://www.w3.org/2000/svg" xmlns:xlink="http://www.w3.org/1999/xlink" version="1.1"><rect x="0" y="0" width="960" height="540" fill="#001D3D"></rect><g fill="#FFF5D6"><circle r="13" cx="447" cy="85"></circle><circle r="1" cx="253" cy="252"></circle><circle r="7" cx="381" cy="521"></circle><circle r="11" cx="681" cy="352"></circle><circle r="9" cx="481" cy="100"></circle><circle r="2" cx="306" cy="60"></circle><circle r="11" cx="493" cy="46"></circle><circle r="1" cx="843" cy="241"></circle><circle r="9" cx="410" cy="3"></circle><circle r="9" cx="68" cy="453"></circle><circle r="6" cx="861" cy="71"></circle><circle r="8" cx="828" cy="8"></circle><circle r="0" cx="490" cy="326"></circle><circle r="1" cx="324" cy="155"></circle><circle r="11" cx="205" cy="168"></circle><circle r="11" cx="479" cy="362"></circle><circle r="2" cx="444" cy="533"></circle><circle r="6" cx="258" cy="134"></circle><circle r="1" cx="638" cy="247"></circle><circle r="3" cx="254" cy="315"></circle><circle r="4" cx="59" cy="295"></circle><circle r="3" cx="80" cy="225"></circle><circle r="1" cx="260" cy="410"></circle><circle r="7" cx="226" cy="366"></circle><circle r="5" cx="612" cy="462"></circle><circle r="1" cx="271" cy="382"></circle><circle r="8" cx="656" cy="134"></circle><circle r="2" cx="652" cy="93"></circle><circle r="8" cx="242" cy="490"></circle><circle r="4" cx="252" cy="35"></circle><circle r="9" cx="667" cy="14"></circle><circle r="7" cx="732" cy="498"></circle><circle r="5" cx="776" cy="255"></circle><circle r="4" cx="406" cy="471"></circle><circle r="11" cx="898" cy="51"></circle><circle r="8" cx="812" cy="160"></circle><circle r="5" cx="93" cy="282"></circle><circle r="9" cx="616" cy="261"></circle><circle r="0" cx="876" cy="414"></circle><circle r="8" cx="177" cy="194"></circle><circle r="0" cx="384" cy="410"></circle><circle r="3" cx="833" cy="98"></circle><circle r="4" cx="842" cy="344"></circle><circle r="1" cx="107" cy="439"></circle><circle r="2" cx="250" cy="206"></circle><circle r="4" cx="16" cy="123"></circle><circle r="3" cx="45" cy="31"></circle><circle r="7" cx="68" cy="486"></circle><circle r="0" cx="681" cy="256"></circle><circle r="8" cx="232" cy="107"></circle><circle r="8" cx="521" cy="185"></circle><circle r="10" cx="390" cy="250"></circle></g></svg>