<svg id="visual" viewBox="0 0 960 540" width="960" height="540" xmlns="http://www.w3.org/2000/svg" xmlns:xlink="http://www.w3.org/1999/xlink" version="1.1">
<rect x="0" y="0" width="960" height="540" fill="#001D3D"></rect><g fill="#FFF5D6"><circle r="13" cx="447" cy="85"></circle><circle r="1" cx="253" cy="252"></circle><circle r="7" cx="381" cy="521"></circle><circle r="11" cx="681" cy="352"></circle><circle r="9" cx="481" cy="100"></circle><circle r="2" cx="306" cy="60"></circle><circle r="11" cx="493" cy="46"></circle><circle r="1" cx="843" cy="241"></circle><circle r="9" cx="410" cy="3"></circle><circle r="9" cx="68" cy="453"></circle><circle r="6" cx="861" cy="71"></circle><circle r="8" cx="828" cy="8"></circle><circle r="0" cx="490" cy="326"></circle><circle r="1" cx="324" cy="155"></circle><circle r="11" cx="205" cy="168"></circle><circle r="11" cx="479" cy="362"></circle><circle r="2" cx="444" cy="533"></circle><circle r="6" cx="258" cy="134"></circle><circle r="1" cx="638" cy="247"></circle><circle r="3" cx="254" cy="315"></circle><circle r="4" cx="59" cy="295"></circle><circle r="3" cx="80" cy="225"></circle><circle r="1" cx="260" cy="410"></circle><circle r="7" cx="226" cy="366"></circle><circle r="5" cx="612" cy="462"></circle><circle r="1" cx="271" cy="382"></circle><circle r="8" cx="656" cy="134"></circle><circle r="2" cx="652" cy="93"></circle><circle r="8" cx="242" cy="490"></circle><circle r="4" cx="252" cy="35"></circle><circle r="9" cx="667" cy="14"></circle><circle r="7" cx="732" cy="498"></circle><circle r="5" cx="776" cy="255"></circle><circle r="4" cx="406" cy="471"></circle><circle r="11" cx="898" cy="51"></circle><circle r="8" cx="812" cy="160"></circle><circle r="5" cx="93" cy="282"></circle><circle r="9" cx="616" cy="261"></circle><circle r="0" cx="876" cy="414"></circle><circle r="8" cx="177" cy="194"></circle><circle r="0" cx="384" cy="410"></circle><circle r="3" cx="833" cy="98"></circle><circle r="4" cx="842" cy="344"></circle><circle r="1" cx="107" cy="439"></circle><circle r="2" cx="250" cy="206"></circle><circle r="4" cx="16" cy="123"></circle><circle r="3" cx="45" cy="31"></circle><circle r="7" cx="68" cy="486"></circle><circle r="0" cx="681" cy="256"></circle><circle r="8" cx="232" cy="107"></circle><circle r="8" cx="521" cy="185"></circle><circle r="10" cx="390" cy="250"></circle></g>
<path d="M0 202L12.3 206.5C24.7 211 49.3 220 74 227.7C98.7 235.3 123.3 241.7 148 237.8C172.7 234 197.3 220 221.8 221.8C246.3 223.7 270.7 241.3 295.2 244.7C319.7 248 344.3 237 369 230C393.7 223 418.3 220 443 218.8C467.7 217.7 492.3 218.3 517 222C541.7 225.7 566.3 232.3 591 230.3C615.7 228.3 640.3 217.7 664.8 216.8C689.3 216 713.7 225 738.2 232.7C762.7 240.3 787.3 246.7 812 243.8C836.7 241 861.3 229 886 222.8C910.7 216.7 935.3 216.3 947.7 216.2L960 216L960 541L947.7 541C935.3 541 910.7 541 886 541C861.3 541 836.7 541 812 541C787.3 541 762.7 541 738.2 541C713.7 541 689.3 541 664.8 541C640.3 541 615.7 541 591 541C566.3 541 541.7 541 517 541C492.3 541 467.7 541 443 541C418.3 541 393.7 541 369 541C344.3 541 319.7 541 295.2 541C270.7 541 246.3 541 221.8 541C197.3 541 172.7 541 148 541C123.3 541 98.7 541 74 541C49.3 541 24.7 541 12.3 541L0 541Z" fill="#04458F"></path>

<path d="M0 321L12.3 319.7C24.7 318.3 49.3 315.7 74 315C98.7 314.3 123.3 315.7 148 315.8C172.7 316 197.3 315 221.8 310.2C246.3 305.3 270.7 296.7 295.2 292.3C319.7 288 344.3 288 369 295.3C393.7 302.7 418.3 317.3 443 323.5C467.7 329.7 492.3 327.3 517 318C541.7 308.7 566.3 292.3 591 291.3C615.7 290.3 640.3 304.7 664.8 313.3C689.3 322 713.7 325 738.2 323.5C762.7 322 787.3 316 812 311C836.7 306 861.3 302 886 294.7C910.7 287.3 935.3 276.7 947.7 271.3L960 266L960 541L947.7 541C935.3 541 910.7 541 886 541C861.3 541 836.7 541 812 541C787.3 541 762.7 541 738.2 541C713.7 541 689.3 541 664.8 541C640.3 541 615.7 541 591 541C566.3 541 541.7 541 517 541C492.3 541 467.7 541 443 541C418.3 541 393.7 541 369 541C344.3 541 319.7 541 295.2 541C270.7 541 246.3 541 221.8 541C197.3 541 172.7 541 148 541C123.3 541 98.7 541 74 541C49.3 541 24.7 541 12.3 541L0 541Z" fill="#003B7A"></path>

<path d="M0 322L12.3 322.2C24.7 322.3 49.3 322.7 74 323.8C98.7 325 123.3 327 148 330.3C172.7 333.7 197.3 338.3 221.8 345.2C246.3 352 270.7 361 295.2 360.8C319.7 360.7 344.3 351.3 369 351.3C393.7 351.3 418.3 360.7 443 359.5C467.7 358.3 492.3 346.7 517 348.2C541.7 349.7 566.3 364.3 591 372C615.7 379.7 640.3 380.3 664.8 378.7C689.3 377 713.7 373 738.2 370.8C762.7 368.7 787.3 368.3 812 361.7C836.7 355 861.3 342 886 345.2C910.7 348.3 935.3 367.7 947.7 377.3L960 387L960 541L947.7 541C935.3 541 910.7 541 886 541C861.3 541 836.7 541 812 541C787.3 541 762.7 541 738.2 541C713.7 541 689.3 541 664.8 541C640.3 541 615.7 541 591 541C566.3 541 541.7 541 517 541C492.3 541 467.7 541 443 541C418.3 541 393.7 541 369 541C344.3 541 319.7 541 295.2 541C270.7 541 246.3 541 221.8 541C197.3 541 172.7 541 148 541C123.3 541 98.7 541 74 541C49.3 541 24.7 541 12.3 541L0 541Z" fill="#003166"></path>

<path d="M0 431L12.3 428C24.7 425 49.3 419 74 412.8C98.7 406.7 123.3 400.3 148 405.5C172.7 410.7 197.3 427.3 221.8 435.7C246.3 444 270.7 444 295.2 439.5C319.7 435 344.3 426 369 416.8C393.7 407.7 418.3 398.3 443 395.8C467.7 393.3 492.3 397.7 517 400.8C541.7 404 566.3 406 591 409.5C615.7 413 640.3 418 664.8 423C689.3 428 713.7 433 738.2 433.2C762.7 433.3 787.3 428.7 812 421.8C836.7 415 861.3 406 886 402.7C910.7 399.3 935.3 401.7 947.7 402.8L960 404L960 541L947.7 541C935.3 541 910.7 541 886 541C861.3 541 836.7 541 812 541C787.3 541 762.7 541 738.2 541C713.7 541 689.3 541 664.8 541C640.3 541 615.7 541 591 541C566.3 541 541.7 541 517 541C492.3 541 467.7 541 443 541C418.3 541 393.7 541 369 541C344.3 541 319.7 541 295.2 541C270.7 541 246.3 541 221.8 541C197.3 541 172.7 541 148 541C123.3 541 98.7 541 74 541C49.3 541 24.7 541 12.3 541L0 541Z" fill="#002752"></path>

<path d="M0 472L12.3 474.7C24.7 477.3 49.3 482.7 74 488.3C98.7 494 123.3 500 148 501C172.7 502 197.3 498 221.8 492.8C246.3 487.7 270.7 481.3 295.2 482.3C319.7 483.3 344.3 491.7 369 491C393.7 490.3 418.3 480.7 443 473.3C467.7 466 492.3 461 517 458.8C541.7 456.7 566.3 457.3 591 459.3C615.7 461.3 640.3 464.7 664.8 464C689.3 463.3 713.7 458.7 738.2 457.5C762.7 456.3 787.3 458.7 812 465.5C836.7 472.3 861.3 483.7 886 485.8C910.7 488 935.3 481 947.7 477.5L960 474L960 541L947.7 541C935.3 541 910.7 541 886 541C861.3 541 836.7 541 812 541C787.3 541 762.7 541 738.2 541C713.7 541 689.3 541 664.8 541C640.3 541 615.7 541 591 541C566.3 541 541.7 541 517 541C492.3 541 467.7 541 443 541C418.3 541 393.7 541 369 541C344.3 541 319.7 541 295.2 541C270.7 541 246.3 541 221.8 541C197.3 541 172.7 541 148 541C123.3 541 98.7 541 74 541C49.3 541 24.7 541 12.3 541L0 541Z" fill="#001D3D"></path>

</svg>