<svg id="visual" viewBox="0 0 960 540" width="960" height="540" xmlns="http://www.w3.org/2000/svg" xmlns:xlink="http://www.w3.org/1999/xlink" version="1.1"><path d="M0 366L12.3 366.7C24.7 367.3 49.3 368.7 74 372.2C98.7 375.7 123.3 381.3 148 379.3C172.7 377.3 197.3 367.7 221.8 363.7C246.3 359.7 270.7 361.3 295.2 360.5C319.7 359.7 344.3 356.3 369 353.7C393.7 351 418.3 349 443 351C467.7 353 492.3 359 517 361.5C541.7 364 566.3 363 591 365.5C615.7 368 640.3 374 664.8 372.3C689.3 370.7 713.7 361.3 738.2 360.3C762.7 359.3 787.3 366.7 812 365.5C836.7 364.3 861.3 354.7 886 355.8C910.7 357 935.3 369 947.7 375L960 381L960 541L947.7 541C935.3 541 910.7 541 886 541C861.3 541 836.7 541 812 541C787.3 541 762.7 541 738.2 541C713.7 541 689.3 541 664.8 541C640.3 541 615.7 541 591 541C566.3 541 541.7 541 517 541C492.3 541 467.7 541 443 541C418.3 541 393.7 541 369 541C344.3 541 319.7 541 295.2 541C270.7 541 246.3 541 221.8 541C197.3 541 172.7 541 148 541C123.3 541 98.7 541 74 541C49.3 541 24.7 541 12.3 541L0 541Z" fill="#fa7268"></path><path d="M0 403L12.3 401.7C24.7 400.3 49.3 397.7 74 396C98.7 394.3 123.3 393.7 148 392C172.7 390.3 197.3 387.7 221.8 390.2C246.3 392.7 270.7 400.3 295.2 403.5C319.7 406.7 344.3 405.3 369 407.3C393.7 409.3 418.3 414.7 443 413.3C467.7 412 492.3 404 517 400.3C541.7 396.7 566.3 397.3 591 398.2C615.7 399 640.3 400 664.8 398.3C689.3 396.7 713.7 392.3 738.2 393.3C762.7 394.3 787.3 400.7 812 405C836.7 409.3 861.3 411.7 886 408.2C910.7 404.7 935.3 395.3 947.7 390.7L960 386L960 541L947.7 541C935.3 541 910.7 541 886 541C861.3 541 836.7 541 812 541C787.3 541 762.7 541 738.2 541C713.7 541 689.3 541 664.8 541C640.3 541 615.7 541 591 541C566.3 541 541.7 541 517 541C492.3 541 467.7 541 443 541C418.3 541 393.7 541 369 541C344.3 541 319.7 541 295.2 541C270.7 541 246.3 541 221.8 541C197.3 541 172.7 541 148 541C123.3 541 98.7 541 74 541C49.3 541 24.7 541 12.3 541L0 541Z" fill="#ef5f67"></path><path d="M0 429L12.3 430C24.7 431 49.3 433 74 433.7C98.7 434.3 123.3 433.7 148 435.5C172.7 437.3 197.3 441.7 221.8 445C246.3 448.3 270.7 450.7 295.2 447C319.7 443.3 344.3 433.7 369 429.3C393.7 425 418.3 426 443 425.8C467.7 425.7 492.3 424.3 517 423C541.7 421.7 566.3 420.3 591 424C615.7 427.7 640.3 436.3 664.8 436.8C689.3 437.3 713.7 429.7 738.2 426.3C762.7 423 787.3 424 812 423.8C836.7 423.7 861.3 422.3 886 426.2C910.7 430 935.3 439 947.7 443.5L960 448L960 541L947.7 541C935.3 541 910.7 541 886 541C861.3 541 836.7 541 812 541C787.3 541 762.7 541 738.2 541C713.7 541 689.3 541 664.8 541C640.3 541 615.7 541 591 541C566.3 541 541.7 541 517 541C492.3 541 467.7 541 443 541C418.3 541 393.7 541 369 541C344.3 541 319.7 541 295.2 541C270.7 541 246.3 541 221.8 541C197.3 541 172.7 541 148 541C123.3 541 98.7 541 74 541C49.3 541 24.7 541 12.3 541L0 541Z" fill="#e34c67"></path><path d="M0 479L12.3 475.7C24.7 472.3 49.3 465.7 74 461.3C98.7 457 123.3 455 148 454.2C172.7 453.3 197.3 453.7 221.8 456.3C246.3 459 270.7 464 295.2 468.2C319.7 472.3 344.3 475.7 369 478C393.7 480.3 418.3 481.7 443 477.5C467.7 473.3 492.3 463.7 517 459.8C541.7 456 566.3 458 591 458C615.7 458 640.3 456 664.8 458.7C689.3 461.3 713.7 468.7 738.2 468.2C762.7 467.7 787.3 459.3 812 458.3C836.7 457.3 861.3 463.7 886 468.5C910.7 473.3 935.3 476.7 947.7 478.3L960 480L960 541L947.7 541C935.3 541 910.7 541 886 541C861.3 541 836.7 541 812 541C787.3 541 762.7 541 738.2 541C713.7 541 689.3 541 664.8 541C640.3 541 615.7 541 591 541C566.3 541 541.7 541 517 541C492.3 541 467.7 541 443 541C418.3 541 393.7 541 369 541C344.3 541 319.7 541 295.2 541C270.7 541 246.3 541 221.8 541C197.3 541 172.7 541 148 541C123.3 541 98.7 541 74 541C49.3 541 24.7 541 12.3 541L0 541Z" fill="#d53867"></path><path d="M0 513L12.3 513.2C24.7 513.3 49.3 513.7 74 509.3C98.7 505 123.3 496 148 494C172.7 492 197.3 497 221.8 500.7C246.3 504.3 270.7 506.7 295.2 508C319.7 509.3 344.3 509.7 369 511.5C393.7 513.3 418.3 516.7 443 516.7C467.7 516.7 492.3 513.3 517 509.5C541.7 505.7 566.3 501.3 591 501C615.7 500.7 640.3 504.3 664.8 506.8C689.3 509.3 713.7 510.7 738.2 509.5C762.7 508.3 787.3 504.7 812 501.5C836.7 498.3 861.3 495.7 886 494.8C910.7 494 935.3 495 947.7 495.5L960 496L960 541L947.7 541C935.3 541 910.7 541 886 541C861.3 541 836.7 541 812 541C787.3 541 762.7 541 738.2 541C713.7 541 689.3 541 664.8 541C640.3 541 615.7 541 591 541C566.3 541 541.7 541 517 541C492.3 541 467.7 541 443 541C418.3 541 393.7 541 369 541C344.3 541 319.7 541 295.2 541C270.7 541 246.3 541 221.8 541C197.3 541 172.7 541 148 541C123.3 541 98.7 541 74 541C49.3 541 24.7 541 12.3 541L0 541Z" fill="#c62368"></path></svg>