<svg id="visual" viewBox="0 0 960 540" width="960" height="540" xmlns="http://www.w3.org/2000/svg" xmlns:xlink="http://www.w3.org/1999/xlink" version="1.1"><path d="M0 452L12.3 452.5C24.7 453 49.3 454 74 455.8C98.7 457.7 123.3 460.3 148 459.2C172.7 458 197.3 453 221.8 451C246.3 449 270.7 450 295.2 449.7C319.7 449.3 344.3 447.7 369 446.3C393.7 445 418.3 444 443 445C467.7 446 492.3 449 517 450.2C541.7 451.3 566.3 450.7 591 451.8C615.7 453 640.3 456 664.8 455.3C689.3 454.7 713.7 450.3 738.2 449.8C762.7 449.3 787.3 452.7 812 452C836.7 451.3 861.3 446.7 886 447.3C910.7 448 935.3 454 947.7 457L960 460L960 541L947.7 541C935.3 541 910.7 541 886 541C861.3 541 836.7 541 812 541C787.3 541 762.7 541 738.2 541C713.7 541 689.3 541 664.8 541C640.3 541 615.7 541 591 541C566.3 541 541.7 541 517 541C492.3 541 467.7 541 443 541C418.3 541 393.7 541 369 541C344.3 541 319.7 541 295.2 541C270.7 541 246.3 541 221.8 541C197.3 541 172.7 541 148 541C123.3 541 98.7 541 74 541C49.3 541 24.7 541 12.3 541L0 541Z" fill="#fa7268"></path><path d="M0 471L12.3 470.3C24.7 469.7 49.3 468.3 74 467.5C98.7 466.7 123.3 466.3 148 465.5C172.7 464.7 197.3 463.3 221.8 464.7C246.3 466 270.7 470 295.2 471.7C319.7 473.3 344.3 472.7 369 473.7C393.7 474.7 418.3 477.3 443 476.7C467.7 476 492.3 472 517 470.2C541.7 468.3 566.3 468.7 591 469C615.7 469.3 640.3 469.7 664.8 468.7C689.3 467.7 713.7 465.3 738.2 465.8C762.7 466.3 787.3 469.7 812 472C836.7 474.3 861.3 475.7 886 473.8C910.7 472 935.3 467 947.7 464.5L960 462L960 541L947.7 541C935.3 541 910.7 541 886 541C861.3 541 836.7 541 812 541C787.3 541 762.7 541 738.2 541C713.7 541 689.3 541 664.8 541C640.3 541 615.7 541 591 541C566.3 541 541.7 541 517 541C492.3 541 467.7 541 443 541C418.3 541 393.7 541 369 541C344.3 541 319.7 541 295.2 541C270.7 541 246.3 541 221.8 541C197.3 541 172.7 541 148 541C123.3 541 98.7 541 74 541C49.3 541 24.7 541 12.3 541L0 541Z" fill="#ef5f67"></path><path d="M0 484L12.3 484.5C24.7 485 49.3 486 74 486.3C98.7 486.7 123.3 486.3 148 487.2C172.7 488 197.3 490 221.8 491.7C246.3 493.3 270.7 494.7 295.2 492.8C319.7 491 344.3 486 369 483.8C393.7 481.7 418.3 482.3 443 482.3C467.7 482.3 492.3 481.7 517 481C541.7 480.3 566.3 479.7 591 481.5C615.7 483.3 640.3 487.7 664.8 488C689.3 488.3 713.7 484.7 738.2 483C762.7 481.3 787.3 481.7 812 481.5C836.7 481.3 861.3 480.7 886 482.7C910.7 484.7 935.3 489.3 947.7 491.7L960 494L960 541L947.7 541C935.3 541 910.7 541 886 541C861.3 541 836.7 541 812 541C787.3 541 762.7 541 738.2 541C713.7 541 689.3 541 664.8 541C640.3 541 615.7 541 591 541C566.3 541 541.7 541 517 541C492.3 541 467.7 541 443 541C418.3 541 393.7 541 369 541C344.3 541 319.7 541 295.2 541C270.7 541 246.3 541 221.8 541C197.3 541 172.7 541 148 541C123.3 541 98.7 541 74 541C49.3 541 24.7 541 12.3 541L0 541Z" fill="#e34c67"></path><path d="M0 509L12.3 507.3C24.7 505.7 49.3 502.3 74 500.2C98.7 498 123.3 497 148 496.7C172.7 496.3 197.3 496.7 221.8 498C246.3 499.3 270.7 501.7 295.2 503.7C319.7 505.7 344.3 507.3 369 508.5C393.7 509.7 418.3 510.3 443 508.3C467.7 506.3 492.3 501.7 517 499.8C541.7 498 566.3 499 591 498.8C615.7 498.7 640.3 497.3 664.8 498.7C689.3 500 713.7 504 738.2 503.8C762.7 503.7 787.3 499.3 812 498.8C836.7 498.3 861.3 501.7 886 504.2C910.7 506.7 935.3 508.3 947.7 509.2L960 510L960 541L947.7 541C935.3 541 910.7 541 886 541C861.3 541 836.7 541 812 541C787.3 541 762.7 541 738.2 541C713.7 541 689.3 541 664.8 541C640.3 541 615.7 541 591 541C566.3 541 541.7 541 517 541C492.3 541 467.7 541 443 541C418.3 541 393.7 541 369 541C344.3 541 319.7 541 295.2 541C270.7 541 246.3 541 221.8 541C197.3 541 172.7 541 148 541C123.3 541 98.7 541 74 541C49.3 541 24.7 541 12.3 541L0 541Z" fill="#d53867"></path><path d="M0 526L12.3 526.2C24.7 526.3 49.3 526.7 74 524.5C98.7 522.3 123.3 517.7 148 516.7C172.7 515.7 197.3 518.3 221.8 520.2C246.3 522 270.7 523 295.2 523.5C319.7 524 344.3 524 369 525C393.7 526 418.3 528 443 528C467.7 528 492.3 526 517 524C541.7 522 566.3 520 591 520C615.7 520 640.3 522 664.8 523.3C689.3 524.7 713.7 525.3 738.2 524.7C762.7 524 787.3 522 812 520.3C836.7 518.7 861.3 517.3 886 517C910.7 516.7 935.3 517.3 947.7 517.7L960 518L960 541L947.7 541C935.3 541 910.7 541 886 541C861.3 541 836.7 541 812 541C787.3 541 762.7 541 738.2 541C713.7 541 689.3 541 664.8 541C640.3 541 615.7 541 591 541C566.3 541 541.7 541 517 541C492.3 541 467.7 541 443 541C418.3 541 393.7 541 369 541C344.3 541 319.7 541 295.2 541C270.7 541 246.3 541 221.8 541C197.3 541 172.7 541 148 541C123.3 541 98.7 541 74 541C49.3 541 24.7 541 12.3 541L0 541Z" fill="#c62368"></path></svg>